<svg xmlns="http://www.w3.org/2000/svg" viewBox="0 0 175.78 182.26"><defs><style>.cls-1{fill:#fff;}.cls-1,.cls-2{stroke:#1d1d1b;stroke-miterlimit:10;stroke-width:3px;}.cls-2{fill:none;}</style></defs><g id="Capa_2" data-name="Capa 2"><g id="Capa_1-2" data-name="Capa 1"><path class="cls-1" d="M126.24,180.76H9.75a8.25,8.25,0,0,1-8.25-8.25V9h133V172.52A8.24,8.24,0,0,1,126.24,180.76Z"/><circle class="cls-1" cx="134.48" cy="125.9" r="39.8"/><line class="cls-2" x1="43.17" y1="139.92" x2="84.7" y2="139.92"/><polyline class="cls-2" points="12.55 137.5 20.58 150 36.44 120.71"/><line class="cls-2" x1="43.17" y1="105.31" x2="84.7" y2="105.31"/><polyline class="cls-2" points="12.55 102.89 20.58 115.39 36.44 86.1"/><line class="cls-2" x1="43.17" y1="70.71" x2="110.69" y2="70.71"/><polyline class="cls-2" points="12.55 68.28 20.58 80.79 36.44 51.49"/><rect class="cls-1" x="41.65" y="1.5" width="52.68" height="16.29"/><path d="M119.12,134.48h5V135q0,4.44,2.6,6.73t7.59,2.3a11.47,11.47,0,0,0,7.53-2.28,7.56,7.56,0,0,0,2.76-6.15q0-6.14-11.08-9.35c-.48-.15-.84-.25-1.08-.31q-6.86-2-9.43-4.53a9.27,9.27,0,0,1-2.59-6.9,11.06,11.06,0,0,1,3.23-7.94,13.17,13.17,0,0,1,8.25-3.92v-6.7H137v6.7a13.29,13.29,0,0,1,8.33,3.53,11.73,11.73,0,0,1,3.3,8h-5.17V114a7,7,0,0,0-2.38-5.54,9.36,9.36,0,0,0-6.34-2.07,10,10,0,0,0-6.76,2.14,7.15,7.15,0,0,0-2.49,5.72q0,5,10.19,8.09c1.41.42,2.49.75,3.26,1q5.88,1.88,8.38,4.54a9.8,9.8,0,0,1,2.49,7,12.42,12.42,0,0,1-3.53,9A14,14,0,0,1,137,148v7.74h-5.13V148a14,14,0,0,1-9.25-4.25A12.85,12.85,0,0,1,119.12,134.48Z"/></g></g></svg>