<svg xmlns="http://www.w3.org/2000/svg" viewBox="0 0 85.13 84.59"><defs><style>.cls-1{fill:#53575a;}</style></defs><g id="Capa_2" data-name="Capa 2"><g id="Pantalla_de_inicio" data-name="Pantalla de inicio"><path class="cls-1" d="M0,69.42V59.94H1.85v7.83h4.3v1.65Z"/><path class="cls-1" d="M13.05,69.42l-.56-1.68H9.12l-.57,1.68H6.62l3.45-9.48h1.45L15,69.42Zm-2.21-6.68-1.2,3.45H12Z"/><path class="cls-1" d="M20.12,69.42h-4V59.94c2.28.1,6.86-.81,6.74,2.66a2.19,2.19,0,0,1-1.17,2C24.12,65.65,23,69.69,20.12,69.42Zm-.31-7.83H18v2.19h1.81A1.1,1.1,0,1,0,19.81,61.59Zm.12,3.85H18v2.33h1.93A1.17,1.17,0,1,0,19.93,65.44Z"/><path class="cls-1" d="M30.63,68.5a3.74,3.74,0,0,1-5.08,0c-.94-.94-1-2-1-3.82s0-2.88,1-3.82a3.74,3.74,0,0,1,5.08,0c.94.94,1,2,1,3.82S31.57,67.56,30.63,68.5ZM29.28,62a1.67,1.67,0,0,0-2.38,0c-.35.4-.45.85-.45,2.66,0,2.33.06,2.93,1.65,3.17,1.57-.24,1.61-.85,1.65-3.17C29.75,62.87,29.63,62.42,29.28,62Z"/><path class="cls-1" d="M38.52,69.42l-1.85-3.78H35.34v3.78H33.49V59.94H37.2c3.37-.15,4.17,4.45,1.35,5.39l2.12,4.09Zm-1.44-7.83H35.34v2.5h1.74A1.25,1.25,0,1,0,37.08,61.59Z"/><path class="cls-1" d="M47.59,69.42,47,67.74H43.66l-.57,1.68H41.16l3.45-9.48h1.45l3.46,9.48Zm-2.21-6.68-1.2,3.45h2.36Z"/><path class="cls-1" d="M53.38,61.59v7.83H51.53V61.59H49.06V59.94h6.8v1.65Z"/><path class="cls-1" d="M62.81,68.5a3.73,3.73,0,0,1-5.07,0c-1-.94-1-2-1-3.82s0-2.88,1-3.82a3.73,3.73,0,0,1,5.07,0c.95.94,1,2,1,3.82S63.76,67.56,62.81,68.5ZM61.47,62a1.68,1.68,0,0,0-2.39,0c-.34.4-.45.85-.45,2.66,0,2.33.06,2.93,1.65,3.17,1.57-.24,1.61-.85,1.65-3.17C61.93,62.87,61.81,62.42,61.47,62Z"/><path class="cls-1" d="M70.71,69.42l-1.85-3.78H67.53v3.78H65.67V59.94h3.72c3.36-.15,4.16,4.45,1.34,5.39l2.12,4.09Zm-1.44-7.83H67.53v2.5h1.74A1.25,1.25,0,1,0,69.27,61.59Z"/><path class="cls-1" d="M74.38,69.42V59.94h1.85v9.48Z"/><path class="cls-1" d="M84.16,68.5a3.74,3.74,0,0,1-5.08,0c-.94-.94-1-2-1-3.82s0-2.88,1-3.82a3.74,3.74,0,0,1,5.08,0c.94.94,1,2,1,3.82S85.1,67.56,84.16,68.5ZM82.81,62a1.67,1.67,0,0,0-2.38,0c-.35.4-.45.85-.45,2.66,0,2.33.06,2.93,1.65,3.17,1.57-.24,1.61-.85,1.65-3.17C83.28,62.87,83.16,62.42,82.81,62Z"/><path class="cls-1" d="M23.1,84.59l-.56-1.68H19.17l-.57,1.68H16.67l3.44-9.48h1.46L25,84.59ZM20.89,77.9l-1.2,3.45H22Z"/><path class="cls-1" d="M26.2,84.59V75.11h1.85v7.83h4.3v1.65Z"/><path class="cls-1" d="M33.86,84.59V75.11H40.1v1.65H35.71V79h3.74v1.65H35.71v2.31H40.1v1.65Z"/><path class="cls-1" d="M48.65,84.59V79.06l-1.81,3.6H45.59l-1.83-3.6v5.53H41.91V75.11h1.83l2.47,5.13,2.47-5.13H50.5v9.48Z"/><path class="cls-1" d="M58.1,84.59l-.56-1.68H54.18l-.58,1.68H51.67l3.45-9.48h1.45L60,84.59ZM55.89,77.9,54.7,81.35h2.35Zm.36-3.71H55.09L56,71.93h1.82Z"/><path class="cls-1" d="M66.81,84.59l-3.75-5.82v5.82H61.21V75.11h1.65l3.75,5.8v-5.8h1.85v9.48Z"/><path class="cls-1" d="M60.1,42.7S50,9.72,50,9.7V0H34.48V9.7l-10.08,33a4,4,0,0,0,3.85,4.9h28A4,4,0,0,0,60.1,42.7Zm-1.89,2.45a2.52,2.52,0,0,1-2,1h-28A2.51,2.51,0,0,1,25.8,43L35.93,9.92V1.45H48.56V9.92L58.69,43A2.52,2.52,0,0,1,58.21,45.15Z"/><path class="cls-1" d="M51.56,27a11.27,11.27,0,0,1-5.21.66l0,0c-2.94-.37-4.6-1.49-7.61-2.78,3.93-.57,7.91-1.21,11.34-2.91Z"/><path class="cls-1" d="M51.56,27a11.27,11.27,0,0,1-5.21.66l0,0c-2.94-.37-4.6-1.49-7.61-2.78,3.93-.57,7.91-1.21,11.34-2.91Z"/><path class="cls-1" d="M33.25,26C40,25.61,43.4,32,52.14,28.9l.6,1.94c-3.43,3.45-8.1,5-13.12,5.12-3.21.09-6.47-.15-9.64.68Z"/><path class="cls-1" d="M28.25,44a.37.37,0,0,1-.38-.42l1.42-4.65c3.18-1.11,6.61-.9,9.93-.95,5.45-.1,10.26-1.55,14.16-5l3.24,10.59a.33.33,0,0,1-.08.28C56.36,44.24,28.55,43.83,28.25,44Z"/></g></g></svg>