<svg xmlns="http://www.w3.org/2000/svg" viewBox="0 0 211.68 77.96"><defs><style>.cls-1{fill:#53575a;}.cls-2{fill:#2d2a26;}.cls-3{fill:#1d1d1b;}.cls-4{fill:#f32735;}.cls-5{fill:#ffda00;}</style></defs><g id="Capa_2" data-name="Capa 2"><g id="Pantalla_de_inicio" data-name="Pantalla de inicio"><g id="Cabecera"><path class="cls-1" d="M72.1,34.32V18.77h3V31.61h7v2.71Z"/><path class="cls-1" d="M93.5,34.32l-.92-2.75H87.06l-.94,2.75H83l5.66-15.55H91l5.67,15.55Zm-3.63-11-2,5.65h3.86Z"/><path class="cls-1" d="M105.09,34.32H98.58V18.77h6.25c3,0,4.8,1.71,4.8,4.37a3.58,3.58,0,0,1-1.92,3.21,3.61,3.61,0,0,1,2.14,3.49C109.85,32.75,107.86,34.32,105.09,34.32Zm-.5-12.84h-3v3.58h3a1.8,1.8,0,1,0,0-3.58Zm.19,6.31h-3.16v3.82h3.16a1.91,1.91,0,1,0,0-3.82Z"/><path class="cls-1" d="M122.32,32.81a6.1,6.1,0,0,1-8.32,0c-1.55-1.55-1.57-3.29-1.57-6.26s0-4.72,1.57-6.27a6.1,6.1,0,0,1,8.32,0c1.55,1.55,1.59,3.3,1.59,6.27S123.87,31.26,122.32,32.81Zm-2.21-10.63a2.53,2.53,0,0,0-1.94-.83,2.63,2.63,0,0,0-2,.83c-.57.66-.74,1.4-.74,4.37s.17,3.69.74,4.34a2.64,2.64,0,0,0,2,.85,2.54,2.54,0,0,0,1.94-.85c.57-.65.76-1.37.76-4.34S120.68,22.84,120.11,22.18Z"/><path class="cls-1" d="M135.26,34.32l-3-6.2H130v6.2h-3V18.77h6.09a4.7,4.7,0,0,1,5,4.76,4.19,4.19,0,0,1-2.83,4.09l3.47,6.7ZM132.9,21.48H130v4.11h2.86a2.06,2.06,0,1,0,0-4.11Z"/><path class="cls-1" d="M150.13,34.32l-.92-2.75h-5.52l-.94,2.75h-3.16l5.65-15.55h2.38l5.68,15.55Zm-3.62-11-2,5.65h3.87Z"/><path class="cls-1" d="M159.63,21.48V34.32h-3V21.48h-4.06V18.77h11.16v2.71Z"/><path class="cls-1" d="M175.09,32.81a6.1,6.1,0,0,1-8.32,0c-1.55-1.55-1.57-3.29-1.57-6.26s0-4.72,1.57-6.27a6.1,6.1,0,0,1,8.32,0c1.55,1.55,1.59,3.3,1.59,6.27S176.64,31.26,175.09,32.81Zm-2.21-10.63a2.53,2.53,0,0,0-1.94-.83,2.63,2.63,0,0,0-2,.83c-.56.66-.74,1.4-.74,4.37s.18,3.69.74,4.34a2.64,2.64,0,0,0,2,.85,2.54,2.54,0,0,0,1.94-.85c.57-.65.77-1.37.77-4.34S173.45,22.84,172.88,22.18Z"/><path class="cls-1" d="M188,34.32l-3-6.2h-2.18v6.2h-3V18.77h6.09a4.71,4.71,0,0,1,5,4.76,4.2,4.2,0,0,1-2.84,4.09l3.47,6.7Zm-2.35-12.84h-2.86v4.11h2.86a2.06,2.06,0,1,0,0-4.11Z"/><path class="cls-1" d="M194.06,34.32V18.77h3V34.32Z"/><path class="cls-1" d="M210.08,32.81a5.5,5.5,0,0,1-4.14,1.64,5.57,5.57,0,0,1-4.17-1.64c-1.55-1.55-1.58-3.29-1.58-6.26s0-4.72,1.58-6.27a5.57,5.57,0,0,1,4.17-1.64,5.5,5.5,0,0,1,4.14,1.64c1.55,1.55,1.6,3.3,1.6,6.27S211.63,31.26,210.08,32.81Zm-2.2-10.63a2.53,2.53,0,0,0-1.94-.83,2.63,2.63,0,0,0-2,.83c-.57.66-.74,1.4-.74,4.37s.17,3.69.74,4.34a2.64,2.64,0,0,0,2,.85,2.54,2.54,0,0,0,1.94-.85c.57-.65.76-1.37.76-4.34S208.45,22.84,207.88,22.18Z"/><path class="cls-1" d="M110,59.19l-.92-2.75h-5.52l-.94,2.75H99.42l5.66-15.55h2.38l5.68,15.55Zm-3.62-11-2,5.65h3.86Z"/><path class="cls-1" d="M115.06,59.19V43.64h3V56.48h7v2.71Z"/><path class="cls-1" d="M127.61,59.19V43.64h10.24v2.71h-7.2V50h6.13v2.7h-6.13v3.78h7.2v2.71Z"/><path class="cls-1" d="M151.87,59.19V50.13l-3,5.89h-2.05l-3-5.89v9.06h-3V43.64h3l4.06,8.41,4-8.41h3V59.19Z"/><path class="cls-1" d="M167.37,59.19l-.92-2.75h-5.52L160,59.19h-3.17l5.66-15.55h2.38l5.67,15.55Zm-3.63-11-2,5.65h3.86Zm.59-6.09h-1.9l1.4-3.71h3Z"/><path class="cls-1" d="M181.65,59.19l-6.16-9.54v9.54h-3V43.64h2.7l6.16,9.52V43.64h3V59.19Z"/><path class="cls-2" d="M58.73,70S42.18,15.94,42.18,15.91V0H16.72V15.91L.18,69.94A6.49,6.49,0,0,0,6.5,78H52.4A6.53,6.53,0,0,0,58.73,70Zm-3.11,4a4.1,4.1,0,0,1-3.22,1.56H6.5a4.11,4.11,0,0,1-4-5L19.1,16.27V2.38H39.8V16.27L56.41,70.55A4.09,4.09,0,0,1,55.62,74Z"/><path class="cls-3" d="M44.73,44.28a18.45,18.45,0,0,1-8.55,1.08l0,0c-4.82-.6-7.54-2.43-12.47-4.55,6.43-.93,13-2,18.59-4.78Z"/><path class="cls-2" d="M44.73,44.28a18.45,18.45,0,0,1-8.55,1.08l0,0c-4.82-.6-7.54-2.43-12.47-4.55,6.43-.93,13-2,18.59-4.78Z"/><path class="cls-4" d="M14.69,42.57c11-.58,16.66,9.82,31,4.82l1,3.17C41,56.23,33.37,58.71,25.15,59c-5.27.15-10.61-.25-15.81,1.12Z"/><path class="cls-5" d="M6.5,72.1a.64.64,0,0,1-.63-.7L8.2,63.79C13.41,62,19,62.3,24.48,62.22c8.94-.17,16.83-2.54,23.23-8.19L53,71.4a.6.6,0,0,1-.13.46C52.59,72.54,7,71.86,6.5,72.1Z"/></g></g></g></svg>